<svg xmlns="http://www.w3.org/2000/svg" width="161.84" height="280.75" viewBox="0 0 161.84 280.75">
  <g id="组_20801" data-name="组 20801" transform="translate(-116.48 -150.5)">
    <path id="路径_24409" data-name="路径 24409" d="M6535.437-6145.371H6515.22v22.33h2.841v14.97h-2.841v3.581a69.119,69.119,0,0,0-30.659,8.545c-1.342.741-2.7,1.555-4.365,2.658a58.712,58.712,0,0,0-18.228,19.484c-1.77.463-2.009-.061-3.654,1.591s-1.574,5.014-1.574,5.014v11.932s-.071,3.327,1.574,4.788a4.549,4.549,0,0,0,3.654,1.054v33.416a5.27,5.27,0,0,0-3.654,1.114c-1.645,1.355-1.574,4.307-1.574,4.307v15.222a6.912,6.912,0,0,0,1.574,4.609,4.061,4.061,0,0,0,3.654,1.309v81.355a7.518,7.518,0,0,0-3.395,1.493,5.713,5.713,0,0,0-1.833,3.659v24.029s-.337,6.081,3.662,8.887,10.977,2.337,10.977,2.337l65.692,0" transform="translate(-6338.734 6297.371)" fill="#017afc" stroke="#017afc" stroke-linejoin="round" stroke-width="3"/>
    <path id="路径_24410" data-name="路径 24410" d="M6454.941-6145.371h22.922v22.33h-2.841v14.97h2.841v3.581s35.189-.264,53.252,30.687c1.77.463,2.009-.061,3.654,1.591s1.573,5.014,1.573,5.014v11.932s.071,3.327-1.573,4.788a4.55,4.55,0,0,1-3.654,1.054v33.416a5.272,5.272,0,0,1,3.654,1.114c1.645,1.355,1.573,4.307,1.573,4.307v15.222a6.913,6.913,0,0,1-1.573,4.609,4.062,4.062,0,0,1-3.654,1.309v81.355a7.52,7.52,0,0,1,3.395,1.493,5.711,5.711,0,0,1,1.833,3.659v24.029s.336,6.081-3.661,8.887-10.977,2.337-10.977,2.337l-65.693,0" transform="translate(-6259.55 6297.371)" fill="#017afc" stroke="#017afc" stroke-linejoin="round" stroke-width="3"/>
    <path id="路径_24411" data-name="路径 24411" d="M52.755-4.14c.3-.249,0-4.792,0-4.792h3.771v-17H53.407V-43.215H90.237l.071,17.283H87.387v17h4.077V-4.14c25.018-1.265,49.853,19.678,53.285,31.272V215.749a12.15,12.15,0,0,1-12.175,12.125H12.175A12.15,12.15,0,0,1,0,215.749V27.132S10.309.141,52.755-4.14Z" transform="translate(125.439 198.69)" fill="#017dfc"/>
  </g>
</svg>
