<svg xmlns="http://www.w3.org/2000/svg" width="148.719" height="154.406" viewBox="0 0 148.719 154.406">
  <g id="组_20839" data-name="组 20839" transform="translate(-8294.041 24583.898)">
    <path id="路径_24412" data-name="路径 24412" d="M0,1.175s13.713,6.7,42.918,0,39.657-8.422,65.3,0,40.5,0,40.5,0V137.526s-.309,5.639-3.5,8.731-9.277,3.635-9.277,3.635H13.111s-6.215-.538-9.493-3.436S0,138.3,0,138.3Z" transform="translate(8294.041 -24579.385)" fill="#fff" opacity="0.2"/>
    <path id="路径_24413" data-name="路径 24413" d="M0,.856s11.941-8.745,42.918,0,37.262,9.322,65.3,0,40.5,0,40.5,0V135.408s.2,7.1-3.488,10.639-11.253,3.526-11.253,3.526H12.217s-5.74-.752-8.794-3.637S0,138.029,0,138.029Z" transform="translate(8294.041 -24579.064)" fill="#fff" opacity="0.2"/>
  </g>
</svg>
